<?xml version="1.0" encoding="UTF-8"?>
<svg xmlns="http://www.w3.org/2000/svg" xmlns:xlink="http://www.w3.org/1999/xlink" width="227pt" height="95pt" viewBox="0 0 227 95" version="1.1">
<defs>
<clipPath id="clip1">
  <path d="M 128.660156 95 L 226.1875 95 L 226.1875 0.0273438 L 128.660156 0.0273438 Z M 128.660156 95 "/>
</clipPath>
<clipPath id="clip2">
  <path d="M 0 95 L 226.191406 95 L 226.191406 0.0273438 L 0 0.0273438 L 0 95 "/>
</clipPath>
</defs>
<g id="surface1">
<g clip-path="url(#clip1)" clip-rule="nonzero">
<path style=" stroke:none;fill-rule:nonzero;fill:rgb(12.730408%,38.221741%,64.648438%);fill-opacity:1;" d="M 136.601562 89.773438 L 219.4375 89.773438 L 219.4375 6.9375 L 136.601562 6.9375 Z M 136.601562 89.773438 "/>
<path style=" stroke:none;fill-rule:nonzero;fill:rgb(100%,100%,100%);fill-opacity:1;" d="M 186.703125 6.277344 L 186.703125 48.820312 L 209.761719 40.191406 L 209.761719 6.398438 "/>
<path style=" stroke:none;fill-rule:nonzero;fill:rgb(100%,100%,100%);fill-opacity:1;" d="M 146.542969 21.859375 L 146.542969 64.40625 L 164.171875 57.511719 L 164.171875 13.378906 L 146.542969 21.859375 "/>
<path style=" stroke:none;fill-rule:nonzero;fill:rgb(100%,100%,100%);fill-opacity:1;" d="M 165.628906 58.042969 L 179.410156 53.546875 L 179.410156 90.125 L 165.628906 90.125 L 165.628906 58.042969 "/>
</g>
<g clip-path="url(#clip2)" clip-rule="nonzero">
<path style=" stroke:none;fill-rule:nonzero;fill:rgb(97.53418%,69.815063%,4.946899%);fill-opacity:1;" d="M 1.96875 60.453125 L 0.00390625 60.453125 L 0.00390625 87.3125 C 0.00390625 88.953125 0.921875 90.3125 3.671875 90.3125 C 6.421875 90.3125 7.296875 89.023438 7.296875 87.417969 L 7.296875 60.453125 L 5.332031 60.453125 L 5.332031 88.078125 C 5.332031 88.847656 4.761719 89.546875 3.671875 89.546875 C 2.535156 89.546875 1.96875 88.882812 1.96875 88.113281 Z M 16.15625 80.570312 L 16.15625 88.113281 C 16.15625 88.882812 15.632812 89.511719 14.5 89.546875 C 13.40625 89.546875 12.707031 88.847656 12.707031 88.078125 L 12.707031 62.898438 C 12.707031 61.992188 12.96875 60.976562 14.5 60.976562 C 16.070312 61.011719 16.15625 62.027344 16.15625 62.898438 L 16.15625 69.429688 L 18.121094 69.429688 L 18.121094 63.84375 C 18.121094 62.058594 17.902344 60.28125 14.5 60.28125 C 11.007812 60.28125 10.742188 62.058594 10.742188 63.878906 L 10.742188 87.417969 C 10.742188 89.023438 11.746094 90.3125 14.5 90.3125 C 17.25 90.3125 18.121094 88.953125 18.121094 87.3125 L 18.121094 80.570312 Z M 34.144531 86.75 L 34.144531 81.128906 C 34.144531 79.59375 33.882812 79 33.445312 77.671875 C 33.050781 76.414062 32.351562 75.296875 31.960938 74.492188 L 30.125 71.140625 C 29.515625 70.023438 29.253906 69.324219 28.992188 68.171875 C 28.730469 66.878906 28.683594 66.078125 28.683594 64.820312 C 28.683594 64.75 28.683594 64.714844 28.683594 64.644531 L 28.683594 62.898438 C 28.683594 62.027344 28.859375 61.011719 30.476562 60.976562 C 31.960938 60.976562 32.179688 61.992188 32.179688 62.898438 L 32.179688 69.359375 L 34.144531 69.359375 L 34.144531 63.878906 C 34.144531 62.09375 33.925781 60.28125 30.433594 60.28125 C 27.027344 60.28125 26.765625 62.058594 26.765625 63.84375 L 26.765625 65.273438 C 26.765625 66.53125 26.765625 67.296875 27.027344 68.523438 C 27.289062 69.78125 27.507812 70.511719 28.160156 71.664062 L 30.082031 75.191406 C 30.824219 76.519531 31.304688 77.289062 31.699219 78.71875 C 31.960938 79.664062 32.179688 80.222656 32.179688 81.199219 L 32.179688 87.660156 C 32.179688 88.53125 32.089844 89.582031 30.476562 89.617188 C 28.992188 89.617188 28.683594 88.605469 28.683594 87.660156 L 28.683594 80.570312 L 26.765625 80.570312 L 26.765625 86.71875 C 26.765625 88.53125 27.027344 90.3125 30.519531 90.3125 C 33.925781 90.28125 34.144531 88.53125 34.144531 86.75 Z M 39.644531 73.691406 L 39.644531 62.898438 C 39.644531 61.992188 39.90625 60.976562 41.390625 60.976562 C 43.003906 61.011719 43.09375 62.027344 43.09375 62.898438 L 43.09375 73.691406 Z M 45.011719 63.84375 C 45.011719 62.058594 44.839844 60.28125 41.433594 60.28125 C 37.941406 60.28125 37.679688 62.058594 37.679688 63.878906 L 37.679688 90.105469 L 39.644531 90.105469 L 39.644531 74.878906 L 43.09375 74.878906 L 43.09375 90.105469 L 45.011719 90.105469 Z M 50.46875 60.417969 L 48.722656 60.417969 L 48.722656 90.105469 L 50.644531 90.105469 L 50.644531 68.523438 L 54.136719 84.449219 L 54.136719 90.105469 L 56.058594 90.105469 L 56.058594 60.417969 L 54.136719 60.417969 L 54.136719 78.371094 Z M 66.449219 60.453125 L 58.808594 60.453125 L 58.808594 61.535156 L 61.601562 61.535156 L 61.601562 90.105469 L 63.566406 90.105469 L 63.566406 61.535156 L 66.449219 61.535156 Z M 71.207031 73.691406 L 71.207031 62.898438 C 71.207031 61.992188 71.46875 60.976562 72.953125 60.976562 C 74.566406 61.011719 74.65625 62.027344 74.65625 62.898438 L 74.65625 73.691406 Z M 76.574219 63.84375 C 76.574219 62.058594 76.402344 60.28125 72.996094 60.28125 C 69.503906 60.28125 69.242188 62.058594 69.242188 63.878906 L 69.242188 90.105469 L 71.207031 90.105469 L 71.207031 74.878906 L 74.65625 74.878906 L 74.65625 90.105469 L 76.574219 90.105469 Z M 90.457031 80.570312 L 90.457031 88.113281 C 90.457031 88.882812 89.933594 89.511719 88.796875 89.546875 C 87.707031 89.546875 87.007812 88.847656 87.007812 88.078125 L 87.007812 62.898438 C 87.007812 61.992188 87.269531 60.976562 88.796875 60.976562 C 90.367188 61.011719 90.457031 62.027344 90.457031 62.898438 L 90.457031 69.429688 L 92.421875 69.429688 L 92.421875 63.84375 C 92.421875 62.058594 92.203125 60.28125 88.796875 60.28125 C 85.304688 60.28125 85.042969 62.058594 85.042969 63.878906 L 85.042969 87.417969 C 85.042969 89.023438 86.046875 90.3125 88.796875 90.3125 C 91.546875 90.3125 92.421875 88.953125 92.421875 87.3125 L 92.421875 80.570312 Z M 101.632812 63.246094 L 101.632812 71.175781 C 101.632812 71.980469 101.457031 72.921875 101.152344 73.234375 C 100.804688 73.65625 99.972656 74.003906 99.144531 74.003906 L 98.226562 74.003906 L 98.226562 61.292969 L 99.40625 61.292969 C 99.972656 61.292969 100.496094 61.429688 100.847656 61.570312 C 101.503906 61.851562 101.632812 62.410156 101.632812 63.246094 Z M 103.597656 90.105469 L 103.597656 77.984375 C 103.597656 77.8125 103.597656 77.636719 103.597656 77.460938 C 103.597656 76.660156 103.554688 75.960938 102.855469 75.261719 C 102.460938 74.808594 101.589844 74.355469 101.503906 74.320312 C 101.589844 74.285156 102.679688 73.761719 103.117188 73.203125 C 103.511719 72.714844 103.597656 72.328125 103.597656 71.769531 L 103.597656 64.085938 C 103.597656 64.015625 103.597656 63.910156 103.597656 63.84375 C 103.597656 62.792969 103.597656 61.886719 102.636719 61.222656 C 101.71875 60.558594 100.277344 60.488281 99.753906 60.488281 C 99.625 60.488281 99.535156 60.488281 99.535156 60.488281 L 96.261719 60.488281 L 96.261719 90.105469 L 98.226562 90.105469 L 98.226562 74.84375 L 99.101562 74.84375 C 99.84375 74.84375 100.277344 74.949219 100.890625 75.367188 C 101.503906 75.75 101.632812 76.660156 101.632812 77.53125 L 101.632812 90.105469 Z M 109.011719 60.453125 L 107.046875 60.453125 L 107.046875 87.3125 C 107.046875 88.953125 107.960938 90.3125 110.714844 90.3125 C 113.464844 90.3125 114.335938 89.023438 114.335938 87.417969 L 114.335938 60.453125 L 112.371094 60.453125 L 112.371094 88.078125 C 112.371094 88.847656 111.804688 89.546875 110.714844 89.546875 C 109.578125 89.546875 109.011719 88.882812 109.011719 88.113281 Z M 117.785156 90.105469 L 125.03125 90.105469 L 125.03125 88.882812 L 120.1875 88.882812 L 124.769531 60.417969 L 118.132812 60.417969 L 118.132812 61.535156 L 122.371094 61.535156 L 117.785156 90.105469 "/>
<path style=" stroke:none;fill-rule:nonzero;fill:rgb(12.730408%,38.221741%,64.648438%);fill-opacity:1;" d="M 54.222656 6.421875 L 54.222656 26.039062 L 60.253906 26.039062 C 62.515625 26.039062 63.605469 25.804688 64.695312 25.097656 C 66.136719 24.15625 66.929688 22.539062 66.929688 20.628906 C 66.929688 19.128906 66.457031 17.835938 65.574219 16.921875 C 64.957031 16.304688 64.546875 16.070312 63.398438 15.71875 C 65.457031 14.921875 66.339844 13.628906 66.339844 11.421875 C 66.339844 9.570312 65.546875 7.894531 64.339844 7.1875 C 63.3125 6.570312 62.605469 6.421875 60.164062 6.421875 Z M 57.398438 14.570312 L 57.398438 8.953125 L 59.78125 8.953125 C 62.015625 8.953125 62.988281 9.777344 62.988281 11.71875 C 62.988281 13.746094 61.957031 14.570312 59.457031 14.570312 Z M 57.398438 23.453125 L 57.398438 17.070312 L 59.753906 17.070312 C 61.136719 17.070312 61.8125 17.246094 62.429688 17.6875 C 63.195312 18.246094 63.605469 19.15625 63.605469 20.304688 C 63.605469 22.363281 62.371094 23.453125 60.015625 23.453125 Z M 72.808594 15.628906 C 73.105469 14.097656 73.871094 13.394531 75.164062 13.394531 C 76.691406 13.394531 77.308594 14.277344 77.308594 16.511719 L 77.308594 17.097656 C 77.015625 17.070312 76.808594 17.070312 76.664062 17.070312 C 73.515625 17.070312 71.457031 17.746094 70.398438 19.097656 C 69.753906 19.921875 69.398438 21.039062 69.398438 22.21875 C 69.398438 24.777344 70.988281 26.394531 73.457031 26.394531 C 74.664062 26.394531 75.664062 26.011719 76.429688 25.246094 C 76.839844 24.863281 77.074219 24.511719 77.546875 23.628906 C 77.546875 24.953125 77.574219 25.277344 77.75 26.039062 L 80.546875 26.039062 C 80.339844 25.15625 80.308594 24.628906 80.308594 22.039062 L 80.308594 17.097656 C 80.308594 15.039062 80.222656 14.246094 79.867188 13.453125 C 79.632812 12.894531 79.191406 12.421875 78.605469 12.039062 C 77.722656 11.480469 76.691406 11.1875 75.398438 11.1875 C 72.371094 11.1875 70.398438 12.660156 69.929688 15.277344 Z M 77.308594 18.980469 L 77.308594 19.6875 C 77.308594 22.335938 76.132812 24.1875 74.457031 24.1875 C 73.222656 24.1875 72.515625 23.394531 72.515625 22.011719 C 72.515625 19.953125 73.839844 18.921875 76.429688 18.921875 C 76.664062 18.921875 76.867188 18.921875 77.308594 18.980469 Z M 92.398438 14.921875 C 91.691406 12.421875 90.164062 11.1875 87.722656 11.1875 C 84.925781 11.1875 82.867188 13.097656 82.867188 15.65625 C 82.867188 16.777344 83.339844 17.835938 84.132812 18.511719 C 84.867188 19.15625 85.546875 19.480469 87.425781 20.070312 C 88.457031 20.394531 88.898438 20.570312 89.28125 20.863281 C 89.75 21.21875 89.984375 21.6875 89.984375 22.277344 C 89.984375 23.421875 89.105469 24.1875 87.722656 24.1875 C 86.164062 24.1875 85.25 23.394531 84.925781 21.6875 L 82.367188 22.1875 C 82.664062 23.71875 82.957031 24.304688 83.722656 25.039062 C 84.664062 25.894531 86.015625 26.394531 87.605469 26.394531 C 90.75 26.394531 92.925781 24.511719 92.925781 21.804688 C 92.925781 20.597656 92.398438 19.480469 91.515625 18.804688 C 90.808594 18.246094 90.191406 17.953125 88.632812 17.453125 C 87.015625 16.921875 86.867188 16.863281 86.457031 16.570312 C 85.984375 16.277344 85.722656 15.777344 85.722656 15.15625 C 85.722656 14.128906 86.515625 13.394531 87.605469 13.394531 C 88.808594 13.394531 89.542969 14.039062 90.042969 15.570312 Z M 95.191406 6.421875 L 95.191406 26.039062 L 98.191406 26.039062 L 98.191406 21.421875 L 100.132812 18.777344 L 103.015625 26.039062 L 106.25 26.039062 L 102.074219 16.539062 L 105.839844 11.539062 L 102.867188 11.539062 L 98.191406 18.011719 L 98.191406 6.421875 Z M 107.722656 11.539062 L 107.722656 26.039062 L 110.722656 26.039062 L 110.722656 11.539062 Z M 110.78125 9.597656 L 110.78125 6.394531 L 107.632812 6.394531 L 107.632812 9.597656 Z M 114.25 11.539062 L 114.25 26.039062 L 117.25 26.039062 L 117.25 17.921875 C 117.25 16.570312 117.277344 16.097656 117.457031 15.453125 C 117.574219 15.039062 117.71875 14.6875 117.957031 14.363281 C 118.308594 13.863281 118.898438 13.597656 119.601562 13.597656 C 120.542969 13.597656 121.074219 14.011719 121.21875 14.894531 C 121.308594 15.394531 121.335938 15.804688 121.335938 16.863281 L 121.335938 26.039062 L 124.335938 26.039062 L 124.335938 16.6875 C 124.335938 15.011719 124.308594 14.453125 124.132812 13.746094 C 124.015625 13.1875 123.75 12.660156 123.367188 12.246094 C 122.71875 11.539062 121.777344 11.1875 120.632812 11.1875 C 118.835938 11.1875 117.777344 11.921875 117.015625 13.777344 L 117.015625 11.539062 L 114.25 11.539062 "/>
<path style=" stroke:none;fill-rule:nonzero;fill:rgb(12.730408%,38.221741%,64.648438%);fill-opacity:1;" d="M 0.582031 30.320312 L 0.582031 49.9375 L 11.933594 49.9375 L 11.933594 47.289062 L 3.816406 47.289062 L 3.816406 41.144531 L 10.082031 41.144531 L 10.082031 38.554688 L 3.816406 38.554688 L 3.816406 32.9375 L 11.816406 32.9375 L 11.816406 30.320312 Z M 13.992188 35.4375 L 13.992188 49.9375 L 16.992188 49.9375 L 16.992188 41.820312 C 16.992188 40.464844 17.019531 39.996094 17.199219 39.347656 C 17.316406 38.9375 17.460938 38.585938 17.699219 38.261719 C 18.050781 37.761719 18.636719 37.496094 19.34375 37.496094 C 20.285156 37.496094 20.816406 37.90625 20.960938 38.789062 C 21.050781 39.289062 21.078125 39.703125 21.078125 40.761719 L 21.078125 49.9375 L 24.078125 49.9375 L 24.078125 40.585938 C 24.078125 38.90625 24.050781 38.347656 23.871094 37.644531 C 23.757812 37.085938 23.492188 36.554688 23.109375 36.144531 C 22.460938 35.4375 21.519531 35.085938 20.375 35.085938 C 18.578125 35.085938 17.519531 35.820312 16.757812 37.671875 L 16.757812 35.4375 Z M 38.785156 33.113281 C 38.34375 33.054688 38.167969 33.054688 37.871094 33.054688 C 36.226562 33.054688 35.519531 33.730469 35.195312 35.730469 C 34.046875 35.203125 33.546875 35.085938 32.429688 35.085938 C 29.402344 35.085938 27.34375 37.027344 27.34375 39.847656 C 27.34375 41.554688 27.871094 42.585938 29.226562 43.554688 C 27.726562 44.320312 27.078125 45.203125 27.078125 46.464844 C 27.078125 47.496094 27.519531 48.171875 28.667969 48.847656 C 27.167969 49.378906 26.550781 50.230469 26.550781 51.644531 C 26.550781 54.023438 28.609375 55.289062 32.371094 55.289062 C 36.667969 55.289062 38.988281 53.703125 38.988281 50.789062 C 38.988281 49.023438 38.167969 47.820312 36.667969 47.347656 C 35.753906 47.085938 35.429688 47.023438 33.3125 46.90625 L 31.785156 46.820312 C 30.226562 46.730469 29.667969 46.4375 29.667969 45.613281 C 29.667969 45.023438 29.960938 44.703125 30.753906 44.347656 C 31.609375 44.554688 31.929688 44.613281 32.609375 44.613281 C 35.578125 44.613281 37.636719 42.671875 37.636719 39.9375 C 37.636719 38.761719 37.285156 37.761719 36.546875 36.820312 C 36.753906 35.703125 37.195312 35.230469 38.105469 35.230469 C 38.3125 35.230469 38.460938 35.261719 38.785156 35.320312 Z M 32.519531 37.054688 C 33.84375 37.054688 34.546875 38.054688 34.546875 39.90625 C 34.546875 41.671875 33.8125 42.703125 32.519531 42.703125 C 31.195312 42.703125 30.460938 41.703125 30.460938 39.9375 C 30.460938 38.085938 31.167969 37.054688 32.519531 37.054688 Z M 30.519531 49.320312 C 31.402344 49.378906 31.519531 49.378906 32.960938 49.4375 C 34.460938 49.496094 35.019531 49.554688 35.488281 49.820312 C 35.929688 50.054688 36.195312 50.582031 36.195312 51.203125 C 36.195312 52.523438 35.019531 53.203125 32.753906 53.203125 C 30.3125 53.203125 29.253906 52.582031 29.253906 51.171875 C 29.253906 50.347656 29.636719 49.789062 30.519531 49.320312 Z M 40.546875 35.4375 L 40.546875 49.9375 L 43.546875 49.9375 L 43.546875 35.4375 Z M 43.605469 33.496094 L 43.605469 30.289062 L 40.460938 30.289062 L 40.460938 33.496094 Z M 47.078125 35.4375 L 47.078125 49.9375 L 50.078125 49.9375 L 50.078125 41.820312 C 50.078125 40.464844 50.105469 39.996094 50.28125 39.347656 C 50.402344 38.9375 50.546875 38.585938 50.78125 38.261719 C 51.136719 37.761719 51.722656 37.496094 52.429688 37.496094 C 53.371094 37.496094 53.902344 37.90625 54.046875 38.789062 C 54.136719 39.289062 54.164062 39.703125 54.164062 40.761719 L 54.164062 49.9375 L 57.164062 49.9375 L 57.164062 40.585938 C 57.164062 38.90625 57.136719 38.347656 56.960938 37.644531 C 56.839844 37.085938 56.578125 36.554688 56.195312 36.144531 C 55.546875 35.4375 54.605469 35.085938 53.460938 35.085938 C 51.664062 35.085938 50.605469 35.820312 49.84375 37.671875 L 49.84375 35.4375 Z M 71.136719 43.144531 C 71.105469 40.085938 70.929688 39.230469 70.074219 37.613281 C 69.253906 36.027344 67.605469 35.085938 65.664062 35.085938 C 62.078125 35.085938 59.898438 38.027344 59.898438 42.90625 C 59.898438 47.613281 61.988281 50.289062 65.636719 50.289062 C 68.546875 50.289062 70.28125 48.789062 71.015625 45.703125 L 68.3125 45.320312 C 67.839844 47.289062 67.136719 48.023438 65.753906 48.023438 C 64.457031 48.023438 63.488281 47.171875 63.164062 45.761719 C 62.988281 44.9375 62.957031 44.554688 62.957031 43.144531 Z M 68.105469 41.113281 L 63.019531 41.113281 C 63.164062 38.613281 64.078125 37.289062 65.578125 37.289062 C 67.195312 37.289062 68.105469 38.613281 68.105469 41.054688 Z M 84.164062 43.144531 C 84.132812 40.085938 83.957031 39.230469 83.105469 37.613281 C 82.28125 36.027344 80.632812 35.085938 78.691406 35.085938 C 75.105469 35.085938 72.929688 38.027344 72.929688 42.90625 C 72.929688 47.613281 75.015625 50.289062 78.664062 50.289062 C 81.574219 50.289062 83.308594 48.789062 84.046875 45.703125 L 81.339844 45.320312 C 80.867188 47.289062 80.164062 48.023438 78.78125 48.023438 C 77.488281 48.023438 76.515625 47.171875 76.191406 45.761719 C 76.015625 44.9375 75.988281 44.554688 75.988281 43.144531 Z M 81.132812 41.113281 L 76.046875 41.113281 C 76.191406 38.613281 77.105469 37.289062 78.605469 37.289062 C 80.222656 37.289062 81.132812 38.613281 81.132812 41.054688 Z M 86.664062 35.4375 L 86.664062 49.9375 L 89.664062 49.9375 L 89.664062 42.554688 C 89.664062 39.730469 90.78125 38.230469 92.867188 38.230469 C 93.042969 38.230469 93.164062 38.261719 93.457031 38.289062 L 93.457031 35.171875 C 93.191406 35.144531 93.105469 35.113281 92.898438 35.113281 C 92.132812 35.113281 91.367188 35.46875 90.75 36.085938 C 90.074219 36.730469 89.78125 37.289062 89.308594 38.671875 L 89.308594 35.4375 Z M 94.691406 35.4375 L 94.691406 49.9375 L 97.691406 49.9375 L 97.691406 35.4375 Z M 97.75 33.496094 L 97.75 30.289062 L 94.601562 30.289062 L 94.601562 33.496094 Z M 101.222656 35.4375 L 101.222656 49.9375 L 104.222656 49.9375 L 104.222656 41.820312 C 104.222656 40.464844 104.25 39.996094 104.425781 39.347656 C 104.542969 38.9375 104.691406 38.585938 104.925781 38.261719 C 105.28125 37.761719 105.867188 37.496094 106.574219 37.496094 C 107.515625 37.496094 108.042969 37.90625 108.191406 38.789062 C 108.277344 39.289062 108.308594 39.703125 108.308594 40.761719 L 108.308594 49.9375 L 111.308594 49.9375 L 111.308594 40.585938 C 111.308594 38.90625 111.277344 38.347656 111.101562 37.644531 C 110.984375 37.085938 110.722656 36.554688 110.339844 36.144531 C 109.691406 35.4375 108.75 35.085938 107.601562 35.085938 C 105.808594 35.085938 104.75 35.820312 103.984375 37.671875 L 103.984375 35.4375 Z M 126.015625 33.113281 C 125.574219 33.054688 125.394531 33.054688 125.101562 33.054688 C 123.457031 33.054688 122.75 33.730469 122.425781 35.730469 C 121.277344 35.203125 120.777344 35.085938 119.660156 35.085938 C 116.632812 35.085938 114.574219 37.027344 114.574219 39.847656 C 114.574219 41.554688 115.101562 42.585938 116.457031 43.554688 C 114.957031 44.320312 114.308594 45.203125 114.308594 46.464844 C 114.308594 47.496094 114.75 48.171875 115.898438 48.847656 C 114.398438 49.378906 113.777344 50.230469 113.777344 51.644531 C 113.777344 54.023438 115.839844 55.289062 119.601562 55.289062 C 123.894531 55.289062 126.21875 53.703125 126.21875 50.789062 C 126.21875 49.023438 125.394531 47.820312 123.894531 47.347656 C 122.984375 47.085938 122.660156 47.023438 120.542969 46.90625 L 119.015625 46.820312 C 117.457031 46.730469 116.898438 46.4375 116.898438 45.613281 C 116.898438 45.023438 117.191406 44.703125 117.984375 44.347656 C 118.835938 44.554688 119.160156 44.613281 119.835938 44.613281 C 122.808594 44.613281 124.867188 42.671875 124.867188 39.9375 C 124.867188 38.761719 124.515625 37.761719 123.777344 36.820312 C 123.984375 35.703125 124.425781 35.230469 125.335938 35.230469 C 125.542969 35.230469 125.691406 35.261719 126.015625 35.320312 Z M 119.75 37.054688 C 121.074219 37.054688 121.777344 38.054688 121.777344 39.90625 C 121.777344 41.671875 121.042969 42.703125 119.75 42.703125 C 118.425781 42.703125 117.691406 41.703125 117.691406 39.9375 C 117.691406 38.085938 118.398438 37.054688 119.75 37.054688 Z M 117.75 49.320312 C 118.632812 49.378906 118.75 49.378906 120.191406 49.4375 C 121.691406 49.496094 122.25 49.554688 122.71875 49.820312 C 123.160156 50.054688 123.425781 50.582031 123.425781 51.203125 C 123.425781 52.523438 122.25 53.203125 119.984375 53.203125 C 117.542969 53.203125 116.484375 52.582031 116.484375 51.171875 C 116.484375 50.347656 116.867188 49.789062 117.75 49.320312 "/>
</g>
</g>
</svg>
